<?xml version="1.0" standalone="no"?><svg xmlns="http://www.w3.org/2000/svg" viewBox="0 0 1440 320"><path fill="#0099ff" fill-opacity="1" d="M0,256L30,261.3C60,267,120,277,180,234.7C240,192,300,96,360,74.7C420,53,480,107,540,128C600,149,660,139,720,154.7C780,171,840,213,900,218.7C960,224,1020,192,1080,165.3C1140,139,1200,117,1260,117.3C1320,117,1380,139,1410,149.3L1440,160L1440,0L1410,0C1380,0,1320,0,1260,0C1200,0,1140,0,1080,0C1020,0,960,0,900,0C840,0,780,0,720,0C660,0,600,0,540,0C480,0,420,0,360,0C300,0,240,0,180,0C120,0,60,0,30,0L0,0Z"></path></svg>